<?xml version="1.0" standalone="no"?>
<!DOCTYPE svg PUBLIC "-//W3C//DTD SVG 20010904//EN"
 "http://www.w3.org/TR/2001/REC-SVG-20010904/DTD/svg10.dtd">
<svg version="1.0" xmlns="http://www.w3.org/2000/svg"
 width="600.000000pt" height="600.000000pt" viewBox="0 0 600.000000 600.000000"
 preserveAspectRatio="xMidYMid meet">
<g transform="translate(0.000000,600.000000) scale(0.100000,-0.100000)"
fill="#000000" stroke="none">
<path d="M1022 5305 c-60 -27 -92 -56 -141 -128 -54 -80 -122 -211 -141 -272
-7 -22 -18 -53 -26 -70 -18 -41 -54 -183 -54 -215 0 -14 -6 -32 -12 -38 -14
-14 -19 -364 -7 -412 4 -14 10 -43 14 -65 11 -64 45 -172 71 -224 40 -84 40
-87 -22 -206 -31 -61 -60 -114 -64 -120 -10 -14 -106 -235 -115 -265 -4 -14
-11 -30 -16 -36 -5 -6 -25 -60 -44 -119 -19 -59 -50 -135 -69 -169 -18 -33
-44 -81 -57 -106 -13 -24 -30 -51 -38 -59 -8 -9 -27 -43 -42 -76 -25 -56 -26
-61 -11 -79 13 -14 27 -17 62 -13 25 2 52 8 61 11 25 11 21 -38 -7 -95 -13
-26 -24 -52 -24 -58 0 -6 -12 -36 -26 -67 -14 -32 -29 -84 -31 -115 -5 -56 -5
-58 20 -64 15 -4 48 0 77 10 28 9 53 15 54 14 9 -11 15 -59 7 -63 -10 -7 -35
-219 -30 -261 3 -24 9 -31 31 -33 15 -2 40 4 57 12 16 9 34 16 38 16 12 0 38
-53 68 -140 71 -207 195 -363 409 -519 217 -158 550 -306 866 -386 361 -91
611 -123 1040 -131 605 -13 1111 64 1568 237 310 118 549 267 732 455 115 119
153 179 219 349 28 70 53 130 55 132 2 3 18 -3 35 -11 16 -9 44 -16 61 -16 50
0 53 23 27 203 -12 86 -20 157 -16 157 4 0 26 -7 49 -15 57 -20 83 -19 105 5
17 18 17 23 2 77 -9 32 -39 116 -66 186 -46 120 -48 128 -28 122 12 -3 44 -9
71 -12 40 -5 52 -3 63 12 7 11 13 24 13 30 0 6 -43 83 -95 171 -53 87 -101
177 -107 199 -37 128 -132 357 -225 543 l-106 213 36 77 c80 172 102 302 94
536 -4 89 -13 193 -22 231 -27 119 -84 275 -146 395 -121 236 -164 272 -324
278 -87 4 -177 -11 -255 -41 -8 -3 -39 -13 -69 -23 -133 -42 -322 -157 -437
-266 -43 -41 -80 -68 -93 -68 -12 0 -47 11 -79 24 -31 13 -93 34 -137 46 -44
12 -89 26 -100 31 -28 12 -103 28 -215 44 -52 8 -124 19 -160 24 -174 28 -602
22 -765 -9 -27 -5 -103 -19 -168 -30 -65 -12 -126 -25 -135 -30 -10 -5 -62
-21 -117 -36 -55 -15 -106 -31 -112 -37 -7 -5 -13 -6 -13 -3 0 4 -10 0 -22 -8
-40 -29 -66 -19 -141 49 -139 127 -319 231 -507 292 -88 29 -123 36 -220 39
-89 4 -123 1 -148 -11z m324 -68 c200 -62 384 -169 528 -307 l83 -80 74 31
c278 115 610 173 989 173 377 0 659 -49 972 -169 l88 -34 73 72 c253 250 679
409 864 323 62 -29 104 -87 188 -263 79 -165 82 -171 99 -235 47 -168 69 -351
56 -475 -18 -187 -39 -268 -104 -404 -20 -42 -36 -79 -36 -83 0 -3 12 -25 27
-49 71 -112 261 -534 278 -617 12 -59 59 -159 139 -295 42 -71 76 -133 76
-137 0 -7 -59 -2 -88 7 -17 6 -62 -24 -62 -41 0 -14 85 -249 99 -274 5 -9 12
-31 16 -49 l7 -34 -33 7 c-89 19 -96 19 -119 -4 -19 -19 -20 -28 -14 -78 4
-31 10 -66 15 -78 4 -12 11 -58 15 -103 l7 -83 -32 17 c-55 28 -82 18 -113
-44 -15 -29 -37 -83 -49 -120 -27 -81 -69 -160 -119 -226 -54 -70 -193 -203
-270 -258 -36 -26 -69 -50 -75 -55 -24 -18 -156 -93 -230 -130 -91 -45 -305
-132 -326 -132 -8 0 -27 -7 -44 -16 -24 -12 -155 -49 -250 -69 -11 -3 -51 -12
-90 -20 -70 -16 -177 -34 -355 -60 -330 -48 -1060 -40 -1325 15 -27 5 -113 22
-190 36 -77 14 -160 31 -185 38 -25 8 -79 23 -120 35 -86 25 -90 26 -110 34
-8 3 -46 15 -85 28 -38 12 -81 28 -95 35 -14 7 -54 25 -90 40 -179 72 -398
213 -533 343 -114 110 -184 211 -227 324 -46 124 -72 180 -92 202 -16 17 -22
18 -51 7 -50 -18 -80 -16 -73 6 9 27 36 219 38 263 2 60 -19 77 -77 61 -53
-14 -85 -15 -85 -4 0 8 21 67 98 279 25 68 26 72 9 90 -18 21 -45 26 -63 12
-9 -7 -84 -10 -84 -4 0 1 39 67 87 146 58 97 97 175 118 239 62 183 98 267
212 498 l116 233 -26 52 c-72 144 -105 275 -113 452 -12 238 39 461 159 703
76 152 119 210 177 240 41 21 55 23 145 19 67 -3 127 -13 181 -30z m4434
-2566 c0 -4 -7 -8 -15 -8 -16 0 -20 9 -9 20 8 8 24 -1 24 -12z m-170 -721 c0
-5 -5 -10 -11 -10 -5 0 -7 5 -4 10 3 6 8 10 11 10 2 0 4 -4 4 -10z"/>
<path d="M1135 5034 c-11 -3 -27 -8 -35 -11 -8 -4 -17 -7 -20 -7 -3 -1 -21
-11 -40 -23 -86 -54 -142 -177 -160 -353 -22 -217 25 -520 81 -520 9 0 67 55
128 123 60 67 171 174 245 237 74 63 135 121 135 129 1 8 4 12 7 8 3 -3 11 -2
18 4 6 5 28 21 50 35 28 18 37 21 32 9 -3 -9 -2 -13 4 -10 6 3 10 13 10 21 0
8 15 24 34 35 36 21 50 44 39 61 -3 7 -1 8 5 4 7 -4 12 -12 12 -17 0 -15 -155
-169 -170 -169 -31 0 -172 -127 -256 -230 -29 -36 -80 -94 -113 -130 -54 -58
-76 -100 -53 -100 18 0 622 610 622 628 0 31 -107 122 -210 179 -115 63 -301
113 -365 97z m150 -69 c120 -31 354 -164 355 -202 0 -10 -110 -83 -126 -83 -2
0 -12 -7 -21 -15 -10 -9 -56 -44 -103 -78 -47 -34 -159 -135 -249 -225 -90
-90 -167 -160 -171 -155 -9 11 -27 101 -41 208 -13 102 -6 240 17 329 18 69
64 164 90 187 58 51 140 62 249 34z m-312 -789 c4 -10 1 -13 -9 -9 -15 6 -19
23 -5 23 5 0 11 -7 14 -14z"/>
<path d="M4805 5034 c-11 -3 -29 -9 -40 -13 -11 -5 -58 -21 -105 -35 -46 -15
-114 -45 -150 -68 -74 -46 -180 -145 -180 -168 0 -16 601 -620 617 -620 6 0
16 7 23 15 11 13 -3 32 -91 121 -113 115 -231 230 -294 287 -22 19 -37 39 -33
43 5 4 16 0 26 -9 10 -10 22 -14 26 -10 4 5 6 3 4 -3 -1 -7 33 -42 77 -80 114
-97 216 -196 298 -291 96 -113 111 -111 146 17 92 340 22 703 -152 792 -40 20
-132 32 -172 22z m132 -65 c71 -27 134 -122 160 -243 28 -136 13 -478 -23
-514 -11 -11 -20 -5 -51 30 -163 188 -438 415 -585 487 -27 12 -48 27 -48 32
0 5 26 29 58 54 66 53 213 128 292 149 66 18 158 20 197 5z m-494 -281 c-2 -5
-11 -8 -20 -8 -9 0 -14 3 -10 6 3 4 -4 15 -16 25 -21 18 -21 18 14 1 20 -9 35
-20 32 -24z m61 -33 c18 -14 37 -22 42 -17 4 4 3 -1 -4 -10 -11 -14 -11 -16 5
-12 10 3 27 -2 38 -11 20 -16 19 -16 -3 -5 -29 14 -45 4 -36 -23 4 -16 -3 -12
-26 16 -17 20 -38 37 -46 37 -8 0 -12 5 -9 11 4 6 -2 13 -14 16 -11 3 -18 9
-15 14 9 16 34 10 68 -16z m556 -495 c6 -11 8 -20 6 -20 -3 0 -10 9 -16 20 -6
11 -8 20 -6 20 3 0 10 -9 16 -20z"/>
<path d="M4326 4662 c-3 -5 1 -9 9 -9 8 0 12 4 9 9 -3 4 -7 8 -9 8 -2 0 -6 -4
-9 -8z"/>
<path d="M2098 3885 c-43 -7 -108 -25 -145 -39 -78 -30 -210 -95 -228 -113 -7
-6 -28 -22 -47 -35 -110 -75 -220 -181 -330 -318 -70 -87 -169 -245 -166 -264
6 -38 28 -27 65 34 71 116 186 263 278 354 225 223 455 336 685 336 206 0 344
-73 444 -233 52 -85 64 -123 72 -238 8 -108 -8 -203 -48 -288 -42 -88 -70
-123 -223 -281 -72 -74 -145 -155 -162 -180 -28 -42 -76 -129 -78 -140 0 -3
-3 -9 -7 -15 -15 -25 -30 -142 -26 -208 11 -178 138 -301 329 -323 58 -6 68
-11 112 -53 94 -89 188 -133 328 -153 169 -25 334 30 469 157 39 37 53 43 103
49 115 13 213 65 272 146 48 66 65 119 65 209 0 91 -16 153 -59 241 -45 90
-97 155 -232 290 -64 63 -132 140 -153 172 -184 280 -117 649 143 786 86 46
153 62 258 62 169 0 314 -49 492 -167 159 -105 392 -362 491 -540 25 -45 40
-52 59 -29 15 18 10 28 -71 148 -74 111 -188 248 -263 316 -133 122 -315 240
-420 272 -22 7 -44 16 -50 20 -22 17 -135 33 -225 33 -153 0 -229 -25 -379
-126 -22 -15 -41 -31 -41 -36 0 -4 -10 -19 -22 -33 -144 -160 -169 -448 -59
-662 50 -97 87 -143 214 -265 201 -195 268 -317 267 -489 -1 -116 -44 -190
-143 -250 -157 -95 -380 -50 -549 111 -60 58 -66 67 -69 110 l-4 48 40 9 c73
18 142 58 207 119 171 159 161 301 -28 407 -73 41 -188 59 -303 49 -222 -21
-371 -160 -326 -306 14 -44 94 -147 143 -183 62 -45 149 -86 184 -86 21 0 29
-6 34 -25 12 -48 -4 -91 -49 -130 -23 -20 -51 -45 -62 -54 -11 -10 -44 -31
-74 -47 -29 -16 -63 -34 -75 -41 -12 -7 -55 -17 -95 -24 -282 -43 -464 147
-395 414 33 128 87 207 265 387 134 135 188 207 225 302 35 91 47 166 42 275
-10 218 -117 385 -303 472 -112 53 -245 69 -377 46z m2533 -462 c13 -16 12
-17 -3 -4 -17 13 -22 21 -14 21 2 0 10 -8 17 -17z m-1506 -594 c80 -15 142
-48 193 -103 23 -25 42 -49 43 -53 5 -49 2 -69 -13 -87 -12 -14 -20 -17 -25
-10 -22 31 -95 44 -133 24 -39 -21 -63 -79 -64 -154 -1 -63 -3 -71 -21 -74
-11 -2 -24 -8 -30 -13 -14 -14 -91 -11 -129 5 -32 14 -33 14 -28 69 11 141
-70 212 -180 156 -48 -24 -58 -17 -58 44 0 143 216 239 445 196z m-296 -276
c35 -28 49 -133 19 -133 -12 0 -118 90 -118 100 0 8 60 50 71 50 4 0 17 -8 28
-17z m439 -3 c17 -11 32 -22 32 -26 0 -27 -81 -109 -109 -109 -32 0 -25 84 10
129 25 31 25 31 67 6z m-553 -10 c3 -5 -1 -10 -9 -10 -9 0 -16 5 -16 10 0 6 4
10 9 10 6 0 13 -4 16 -10z m629 -6 c3 -8 2 -12 -4 -9 -6 3 -10 1 -10 -6 0 -7
-2 -10 -5 -7 -5 5 4 38 10 38 2 0 6 -7 9 -16z m-457 -154 c-2 -23 -2 -24 -26
-8 -18 11 -18 13 -3 24 21 15 31 10 29 -16z m293 7 c0 -8 -7 -14 -15 -14 -16
0 -19 9 -8 20 11 11 23 8 23 -6z m-139 -204 c13 -17 13 -17 -6 -3 -11 8 -22
16 -24 17 -2 2 0 3 6 3 6 0 17 -8 24 -17z m3 -41 c48 -71 217 -176 314 -197
37 -8 39 -14 12 -41 -33 -33 -45 -41 -116 -78 -183 -95 -436 -58 -588 86 -31
30 -29 31 33 42 71 13 175 73 246 144 39 37 72 69 75 70 3 1 13 -10 24 -26z
m-424 -203 c0 -18 -2 -20 -15 -9 -13 11 -13 15 -3 21 18 12 18 12 18 -12z
m828 7 c-2 -1 -12 -8 -23 -16 -11 -8 -17 -10 -13 -6 4 5 3 15 -2 21 -8 9 -4
11 15 7 14 -2 25 -5 23 -6z"/>
<path d="M2041 3399 c-45 -18 -109 -78 -130 -122 -35 -71 -26 -172 21 -239 29
-41 99 -79 160 -85 185 -19 312 193 212 354 -52 83 -176 127 -263 92z m165
-70 c82 -50 106 -156 55 -239 -35 -58 -81 -84 -146 -84 -118 0 -197 106 -166
224 30 112 157 161 257 99z"/>
<path d="M3840 3389 c-58 -26 -84 -51 -115 -110 -77 -147 37 -329 205 -329 45
0 127 39 162 76 77 82 78 230 2 308 -71 73 -168 94 -254 55z m182 -64 c92 -61
104 -197 23 -275 -32 -31 -42 -35 -104 -38 -77 -5 -117 10 -150 56 -117 165
64 367 231 257z"/>
<path d="M2705 2909 c-4 -6 -5 -12 -2 -15 2 -3 7 2 10 11 7 17 1 20 -8 4z"/>
<path d="M731 5024 c0 -11 3 -14 6 -6 3 7 2 16 -1 19 -3 4 -6 -2 -5 -13z"/>
</g>
</svg>
