<?xml version="1.0" encoding="UTF-8" standalone="no"?>
<!DOCTYPE svg PUBLIC "-//W3C//DTD SVG 1.1//EN" "http://www.w3.org/Graphics/SVG/1.1/DTD/svg11.dtd">
<svg width="100%" height="100%" viewBox="0 0 600 600" version="1.1" xmlns="http://www.w3.org/2000/svg" xmlns:xlink="http://www.w3.org/1999/xlink" xml:space="preserve" xmlns:serif="http://www.serif.com/" style="fill-rule:evenodd;clip-rule:evenodd;stroke-linejoin:round;stroke-miterlimit:2;">
    <path d="M304.1,381.7C305.4,383.4 305.4,383.4 303.5,382C302.4,381.2 301.3,380.4 301.1,380.3C300.9,380.1 301.1,380 301.7,380C302.3,380 303.4,380.8 304.1,381.7Z"/>
    <path d="M334.4,346.6C334.7,347.4 334.6,347.8 334,347.5C333.4,347.2 333,347.4 333,348.1C333,348.8 332.8,349.1 332.5,348.8C332,348.3 332.9,345 333.5,345C333.7,345 334.1,345.7 334.4,346.6Z"/>
    <path d="M318,361.3C318,362.1 317.3,362.7 316.5,362.7C314.9,362.7 314.6,361.8 315.7,360.7C316.8,359.6 318,359.9 318,361.3Z"/>
    <path d="M288.7,362C288.5,364.3 288.5,364.4 286.1,362.8C284.3,361.7 284.3,361.5 285.8,360.4C287.9,358.9 288.9,359.4 288.7,362Z"/>
    <g transform="matrix(0.1,0,0,-0.1,0,600)">
        <g transform="matrix(10,0,0,-10,0,6000)">
            <path d="M578,332.9C578,333.3 577.3,333.7 576.5,333.7C574.9,333.7 574.5,332.8 575.6,331.7C576.4,330.9 578,331.8 578,332.9Z"/>
        </g>
        <g transform="matrix(10,0,0,-10,0,6000)">
            <path d="M561,405C561,405.5 560.5,406 559.9,406C559.4,406 559.2,405.5 559.5,405C559.8,404.4 560.3,404 560.6,404C560.8,404 561,404.4 561,405Z"/>
        </g>
        <path d="M1022,5305C962,5278 930,5249 881,5177C827,5097 759,4966 740,4905C733,4883 722,4852 714,4835C696,4794 660,4652 660,4620C660,4606 654,4588 648,4582C634,4568 629,4218 641,4170C645,4156 651,4127 655,4105C666,4041 700,3933 726,3881C766,3797 766,3794 704,3675C673,3614 644,3561 640,3555C630,3541 534,3320 525,3290C521,3276 514,3260 509,3254C504,3248 484,3194 465,3135C446,3076 415,3000 396,2966C378,2933 352,2885 339,2860C326,2836 309,2809 301,2801C293,2792 274,2758 259,2725C234,2669 233,2664 248,2646C261,2632 275,2629 310,2633C335,2635 362,2641 371,2644C396,2655 392,2606 364,2549C351,2523 340,2497 340,2491C340,2485 328,2455 314,2424C300,2392 285,2340 283,2309C278,2253 278,2251 303,2245C318,2241 351,2245 380,2255C408,2264 433,2270 434,2269C443,2258 449,2210 441,2206C431,2199 406,1987 411,1945C414,1921 420,1914 442,1912C457,1910 482,1916 499,1924C515,1933 533,1940 537,1940C549,1940 575,1887 605,1800C676,1593 800,1437 1014,1281C1231,1123 1564,975 1880,895C2241,804 2491,772 2920,764C3525,751 4031,828 4488,1001C4798,1119 5037,1268 5220,1456C5335,1575 5373,1635 5439,1805C5467,1875 5492,1935 5494,1937C5496,1940 5512,1934 5529,1926C5545,1917 5573,1910 5590,1910C5640,1910 5643,1933 5617,2113C5605,2199 5597,2270 5601,2270C5605,2270 5627,2263 5650,2255C5707,2235 5733,2236 5755,2260C5772,2278 5772,2283 5757,2337C5748,2369 5718,2453 5691,2523C5645,2643 5643,2651 5663,2645C5675,2642 5707,2636 5734,2633C5774,2628 5786,2630 5797,2645C5804,2656 5810,2669 5810,2675C5810,2681 5767,2758 5715,2846C5662,2933 5614,3023 5608,3045C5571,3173 5476,3402 5383,3588L5277,3801L5313,3878C5393,4050 5415,4180 5407,4414C5403,4503 5394,4607 5385,4645C5358,4764 5301,4920 5239,5040C5118,5276 5075,5312 4915,5318C4828,5322 4738,5307 4660,5277C4652,5274 4621,5264 4591,5254C4458,5212 4269,5097 4154,4988C4111,4947 4074,4920 4061,4920C4049,4920 4014,4931 3982,4944C3951,4957 3889,4978 3845,4990C3801,5002 3756,5016 3745,5021C3717,5033 3642,5049 3530,5065C3478,5073 3406,5084 3370,5089C3196,5117 2768,5111 2605,5080C2578,5075 2502,5061 2437,5050C2372,5038 2311,5025 2302,5020C2292,5015 2240,4999 2185,4984C2130,4969 2079,4953 2073,4947C2066,4942 2060,4941 2060,4944C2060,4948 2050,4944 2038,4936C1998,4907 1972,4917 1897,4985C1758,5112 1578,5216 1390,5277C1302,5306 1267,5313 1170,5316C1081,5320 1047,5317 1022,5305ZM1346,5237C1546,5175 1730,5068 1874,4930L1957,4850L2031,4881C2309,4996 2641,5054 3020,5054C3397,5054 3679,5005 3992,4885L4080,4851L4153,4923C4406,5173 4832,5332 5017,5246C5079,5217 5121,5159 5205,4983C5284,4818 5287,4812 5304,4748C5351,4580 5373,4397 5360,4273C5342,4086 5321,4005 5256,3869C5236,3827 5220,3790 5220,3786C5220,3783 5232,3761 5247,3737C5318,3625 5508,3203 5525,3120C5537,3061 5584,2961 5664,2825C5706,2754 5740,2692 5740,2688C5740,2681 5681,2686 5652,2695C5635,2701 5590,2671 5590,2654C5590,2640 5675,2405 5689,2380C5694,2371 5701,2349 5705,2331L5712,2297L5679,2304C5590,2323 5583,2323 5560,2300C5541,2281 5540,2272 5546,2222C5550,2191 5556,2156 5561,2144C5565,2132 5572,2086 5576,2041L5583,1958L5551,1975C5496,2003 5469,1993 5438,1931C5423,1902 5401,1848 5389,1811C5362,1730 5320,1651 5270,1585C5216,1515 5077,1382 5000,1327C4964,1301 4931,1277 4925,1272C4901,1254 4769,1179 4695,1142C4604,1097 4390,1010 4369,1010C4361,1010 4342,1003 4325,994C4301,982 4170,945 4075,925C4064,922 4024,913 3985,905C3915,889 3808,871 3630,845C3300,797 2570,805 2305,860C2278,865 2192,882 2115,896C2038,910 1955,927 1930,934C1905,942 1851,957 1810,969C1724,994 1720,995 1700,1003C1692,1006 1654,1018 1615,1031C1577,1043 1534,1059 1520,1066C1506,1073 1466,1091 1430,1106C1251,1178 1032,1319 897,1449C783,1559 713,1660 670,1773C624,1897 598,1953 578,1975C562,1992 556,1993 527,1982C477,1964 447,1966 454,1988C463,2015 490,2207 492,2251C494,2311 473,2328 415,2312C362,2298 330,2297 330,2308C330,2316 351,2375 428,2587C453,2655 454,2659 437,2677C419,2698 392,2703 374,2689C365,2682 290,2679 290,2685C290,2686 329,2752 377,2831C435,2928 474,3006 495,3070C557,3253 593,3337 707,3568L823,3801L797,3853C725,3997 692,4128 684,4305C672,4543 723,4766 843,5008C919,5160 962,5218 1020,5248C1061,5269 1075,5271 1165,5267C1232,5264 1292,5254 1346,5237ZM5780,2671C5780,2667 5773,2663 5765,2663C5749,2663 5745,2672 5756,2683C5764,2691 5780,2682 5780,2671ZM5610,1950C5610,1945 5605,1940 5599,1940C5594,1940 5592,1945 5595,1950C5598,1956 5603,1960 5606,1960C5608,1960 5610,1956 5610,1950Z" style="fill-rule:nonzero;stroke:black;stroke-width:69.04px;"/>
        <g transform="matrix(10,0,0,-10,0,6000)">
            <path d="M97.3,182.4C97.7,183.4 97.4,183.7 96.4,183.3C94.9,182.7 94.5,181 95.9,181C96.4,181 97,181.7 97.3,182.4Z"/>
        </g>
        <g transform="matrix(10,0,0,-10,0,6000)">
            <path d="M128.5,103.5C140.5,106.6 163.9,119.9 164,123.7C164,124.7 153,132 151.4,132C151.2,132 150.2,132.7 149.3,133.5C148.3,134.4 143.7,137.9 139,141.3C134.3,144.7 123.1,154.8 114.1,163.8C105.1,172.8 97.4,179.8 97,179.3C96.1,178.2 94.3,169.2 92.9,158.5C91.6,148.3 92.3,134.5 94.6,125.6C96.4,118.7 101,109.2 103.6,106.9C109.4,101.8 117.6,100.7 128.5,103.5Z"/>
        </g>
        <path d="M1135,5034C1124,5031 1108,5026 1100,5023C1092,5019 1083,5016 1080,5016C1077,5015 1059,5005 1040,4993C954,4939 898,4816 880,4640C858,4423 905,4120 961,4120C970,4120 1028,4175 1089,4243C1149,4310 1260,4417 1334,4480C1408,4543 1469,4601 1469,4609C1470,4617 1473,4621 1476,4617C1479,4614 1487,4615 1494,4621C1500,4626 1522,4642 1544,4656C1572,4674 1581,4677 1576,4665C1573,4656 1574,4652 1580,4655C1586,4658 1590,4668 1590,4676C1590,4684 1605,4700 1624,4711C1660,4732 1674,4755 1663,4772C1660,4779 1662,4780 1668,4776C1675,4772 1680,4764 1680,4759C1680,4744 1525,4590 1510,4590C1479,4590 1338,4463 1254,4360C1225,4324 1174,4266 1141,4230C1087,4172 1065,4130 1088,4130C1106,4130 1710,4740 1710,4758C1710,4789 1603,4880 1500,4937C1385,5000 1199,5050 1135,5034ZM1285,4965C1405,4934 1639,4801 1640,4763C1640,4753 1530,4680 1514,4680C1512,4680 1502,4673 1493,4665C1483,4656 1437,4621 1390,4587C1343,4553 1231,4452 1141,4362C1051,4272 974,4202 970,4207C961,4218 943,4308 929,4415C916,4517 923,4655 946,4744C964,4813 1010,4908 1036,4931C1094,4982 1176,4993 1285,4965ZM973,4176C977,4166 974,4163 964,4167C949,4173 945,4190 959,4190C964,4190 970,4183 973,4176Z" style="fill-rule:nonzero;"/>
        <g transform="matrix(10,0,0,-10,0,6000)">
            <path d="M506,184C506.6,185.1 506.8,186 506.6,186C506.3,186 505.6,185.1 505,184C504.4,182.9 504.2,182 504.4,182C504.7,182 505.4,182.9 506,184Z"/>
        </g>
        <g transform="matrix(10,0,0,-10,0,6000)">
            <path d="M450.4,134.5C452.2,135.9 454.1,136.7 454.6,136.2C455,135.8 454.9,136.3 454.2,137.2C453.1,138.6 453.1,138.8 454.7,138.4C455.7,138.1 457.4,138.6 458.5,139.5C460.5,141.1 460.4,141.1 458.2,140C455.3,138.6 453.7,139.6 454.6,142.3C455,143.9 454.3,143.5 452,140.7C450.3,138.7 448.2,137 447.4,137C446.6,137 446.2,136.5 446.5,135.9C446.9,135.3 446.3,134.6 445.1,134.3C444,134 443.3,133.4 443.6,132.9C444.5,131.3 447,131.9 450.4,134.5Z"/>
        </g>
        <g transform="matrix(10,0,0,-10,0,6000)">
            <path d="M444.3,131.2C444.1,131.7 443.2,132 442.3,132C441.4,132 440.9,131.7 441.3,131.4C441.6,131 440.9,129.9 439.7,128.9C437.6,127.1 437.6,127.1 441.1,128.8C443.1,129.7 444.6,130.8 444.3,131.2Z"/>
        </g>
        <g transform="matrix(10,0,0,-10,0,6000)">
            <path d="M493.7,103.1C500.8,105.8 507.1,115.3 509.7,127.4C512.5,141 511,175.2 507.4,178.8C506.3,179.9 505.4,179.3 502.3,175.8C486,157 458.5,134.3 443.8,127.1C441.1,125.9 439,124.4 439,123.9C439,123.4 441.6,121 444.8,118.5C451.4,113.2 466.1,105.7 474,103.6C480.6,101.8 489.8,101.6 493.7,103.1Z"/>
        </g>
        <path d="M4805,5034C4794,5031 4776,5025 4765,5021C4754,5016 4707,5000 4660,4986C4614,4971 4546,4941 4510,4918C4436,4872 4330,4773 4330,4750C4330,4734 4931,4130 4947,4130C4953,4130 4963,4137 4970,4145C4981,4158 4967,4177 4879,4266C4766,4381 4648,4496 4585,4553C4563,4572 4548,4592 4552,4596C4557,4600 4568,4596 4578,4587C4588,4577 4600,4573 4604,4577C4608,4582 4610,4580 4608,4574C4607,4567 4641,4532 4685,4494C4799,4397 4901,4298 4983,4203C5079,4090 5094,4092 5129,4220C5221,4560 5151,4923 4977,5012C4937,5032 4845,5044 4805,5034ZM4937,4969C5008,4942 5071,4847 5097,4726C5125,4590 5110,4248 5074,4212C5063,4201 5054,4207 5023,4242C4860,4430 4585,4657 4438,4729C4411,4741 4390,4756 4390,4761C4390,4766 4416,4790 4448,4815C4514,4868 4661,4943 4740,4964C4806,4982 4898,4984 4937,4969ZM4443,4688C4441,4683 4432,4680 4423,4680C4414,4680 4409,4683 4413,4686C4416,4690 4409,4701 4397,4711C4376,4729 4376,4729 4411,4712C4431,4703 4446,4692 4443,4688ZM4504,4655C4522,4641 4541,4633 4546,4638C4550,4642 4549,4637 4542,4628C4531,4614 4531,4612 4547,4616C4557,4619 4574,4614 4585,4605C4605,4589 4604,4589 4582,4600C4553,4614 4537,4604 4546,4577C4550,4561 4543,4565 4520,4593C4503,4613 4482,4630 4474,4630C4466,4630 4462,4635 4465,4641C4469,4647 4463,4654 4451,4657C4440,4660 4433,4666 4436,4671C4445,4687 4470,4681 4504,4655ZM5060,4160C5066,4149 5068,4140 5066,4140C5063,4140 5056,4149 5050,4160C5044,4171 5042,4180 5044,4180C5047,4180 5054,4171 5060,4160Z" style="fill-rule:nonzero;"/>
        <g transform="matrix(10,0,0,-10,0,6000)">
            <path d="M344.8,405.4C344.6,405.5 343.6,406.2 342.5,407C341.4,407.8 340.8,408 341.2,407.6C341.6,407.1 341.5,406.1 341,405.5C340.2,404.6 340.6,404.4 342.5,404.8C343.9,405 345,405.3 344.8,405.4Z"/>
        </g>
        <g transform="matrix(10,0,0,-10,0,6000)">
            <path d="M262,406.1C262,407.9 261.8,408.1 260.5,407C259.2,405.9 259.2,405.5 260.2,404.9C262,403.7 262,403.7 262,406.1Z"/>
        </g>
        <g transform="matrix(10,0,0,-10,0,6000)">
            <path d="M463.1,257.7C464.4,259.3 464.3,259.4 462.8,258.1C461.1,256.8 460.6,256 461.4,256C461.6,256 462.4,256.8 463.1,257.7Z"/>
        </g>
        <g transform="matrix(10,0,0,-10,0,6000)">
            <path d="M312.5,317.1C320.5,318.6 326.7,321.9 331.8,327.4C334.1,329.9 336,332.3 336.1,332.7C336.6,337.6 336.3,339.6 334.8,341.4C333.6,342.8 332.8,343.1 332.3,342.4C330.1,339.3 322.8,338 319,340C315.1,342.1 312.7,347.9 312.6,355.4C312.5,361.7 312.3,362.5 310.5,362.8C309.4,363 308.1,363.6 307.5,364.1C306.1,365.5 298.4,365.2 294.6,363.6C291.4,362.2 291.3,362.2 291.8,356.7C292.9,342.6 284.8,335.5 273.8,341.1C269,343.5 268,342.8 268,336.7C268,322.4 289.6,312.8 312.5,317.1Z"/>
        </g>
        <path d="M2098,3885C2055,3878 1990,3860 1953,3846C1875,3816 1743,3751 1725,3733C1718,3727 1697,3711 1678,3698C1568,3623 1458,3517 1348,3380C1278,3293 1179,3135 1182,3116C1188,3078 1210,3089 1247,3150C1318,3266 1433,3413 1525,3504C1750,3727 1980,3840 2210,3840C2416,3840 2554,3767 2654,3607C2706,3522 2718,3484 2726,3369C2734,3261 2718,3166 2678,3081C2636,2993 2608,2958 2455,2800C2383,2726 2310,2645 2293,2620C2265,2578 2217,2491 2215,2480C2215,2477 2212,2471 2208,2465C2193,2440 2178,2323 2182,2257C2193,2079 2320,1956 2511,1934C2569,1928 2579,1923 2623,1881C2717,1792 2811,1748 2951,1728C3120,1703 3285,1758 3420,1885C3459,1922 3473,1928 3523,1934C3638,1947 3736,1999 3795,2080C3843,2146 3860,2199 3860,2289C3860,2380 3844,2442 3801,2530C3756,2620 3704,2685 3569,2820C3505,2883 3437,2960 3416,2992C3232,3272 3299,3641 3559,3778C3645,3824 3712,3840 3817,3840C3986,3840 4131,3791 4309,3673C4468,3568 4701,3311 4800,3133C4825,3088 4840,3081 4859,3104C4874,3122 4869,3132 4788,3252C4714,3363 4600,3500 4525,3568C4392,3690 4210,3808 4105,3840C4083,3847 4061,3856 4055,3860C4033,3877 3920,3893 3830,3893C3677,3893 3601,3868 3451,3767C3429,3752 3410,3736 3410,3731C3410,3727 3400,3712 3388,3698C3244,3538 3219,3250 3329,3036C3379,2939 3416,2893 3543,2771C3744,2576 3811,2454 3810,2282C3809,2166 3766,2092 3667,2032C3510,1937 3287,1982 3118,2143C3058,2201 3052,2210 3049,2253L3045,2301L3085,2310C3158,2328 3227,2368 3292,2429C3463,2588 3453,2730 3264,2836C3191,2877 3076,2895 2961,2885C2739,2864 2590,2725 2635,2579C2649,2535 2729,2432 2778,2396C2840,2351 2927,2310 2962,2310C2983,2310 2991,2304 2996,2285C3008,2237 2992,2194 2947,2155C2924,2135 2896,2110 2885,2101C2874,2091 2841,2070 2811,2054C2782,2038 2748,2020 2736,2013C2724,2006 2681,1996 2641,1989C2359,1946 2177,2136 2246,2403C2279,2531 2333,2610 2511,2790C2645,2925 2699,2997 2736,3092C2771,3183 2783,3258 2778,3367C2768,3585 2661,3752 2475,3839C2363,3892 2230,3908 2098,3885ZM4631,3423C4644,3407 4643,3406 4628,3419C4611,3432 4606,3440 4614,3440C4616,3440 4624,3432 4631,3423ZM3125,2829C3205,2814 3267,2781 3318,2726C3341,2701 3360,2677 3361,2673C3366,2624 3363,2604 3348,2586C3336,2572 3328,2569 3323,2576C3301,2607 3228,2620 3190,2600C3151,2579 3127,2521 3126,2446C3125,2383 3123,2375 3105,2372C3094,2370 3081,2364 3075,2359C3061,2345 2984,2348 2946,2364C2914,2378 2913,2378 2918,2433C2929,2574 2848,2645 2738,2589C2690,2565 2680,2572 2680,2633C2680,2776 2896,2872 3125,2829ZM2829,2553C2864,2525 2878,2420 2848,2420C2836,2420 2730,2510 2730,2520C2730,2528 2790,2570 2801,2570C2805,2570 2818,2562 2829,2553ZM3268,2550C3285,2539 3300,2528 3300,2524C3300,2497 3219,2415 3191,2415C3159,2415 3166,2499 3201,2544C3226,2575 3226,2575 3268,2550ZM2715,2540C2718,2535 2714,2530 2706,2530C2697,2530 2690,2535 2690,2540C2690,2546 2694,2550 2699,2550C2705,2550 2712,2546 2715,2540ZM3344,2534C3347,2526 3346,2522 3340,2525C3334,2528 3330,2526 3330,2519C3330,2512 3328,2509 3325,2512C3320,2517 3329,2550 3335,2550C3337,2550 3341,2543 3344,2534ZM2887,2380C2885,2357 2885,2356 2861,2372C2843,2383 2843,2385 2858,2396C2879,2411 2889,2406 2887,2380ZM3180,2387C3180,2379 3173,2373 3165,2373C3149,2373 3146,2382 3157,2393C3168,2404 3180,2401 3180,2387ZM3041,2183C3054,2166 3054,2166 3035,2180C3024,2188 3013,2196 3011,2197C3009,2199 3011,2200 3017,2200C3023,2200 3034,2192 3041,2183ZM3044,2142C3092,2071 3261,1966 3358,1945C3395,1937 3397,1931 3370,1904C3337,1871 3325,1863 3254,1826C3071,1731 2818,1768 2666,1912C2635,1942 2637,1943 2699,1954C2770,1967 2874,2027 2945,2098C2984,2135 3017,2167 3020,2168C3023,2169 3033,2158 3044,2142ZM2620,1939C2620,1921 2618,1919 2605,1930C2592,1941 2592,1945 2602,1951C2620,1963 2620,1963 2620,1939ZM3448,1946C3446,1945 3436,1938 3425,1930C3414,1922 3408,1920 3412,1924C3416,1929 3415,1939 3410,1945C3402,1954 3406,1956 3425,1952C3439,1950 3450,1947 3448,1946Z" style="fill-rule:nonzero;stroke:black;stroke-width:23.98px;"/>
        <g transform="matrix(10,0,0,-10,0,6000)">
            <ellipse cx="270.129" cy="346.138" rx="2.305" ry="2.854"/>
        </g>
        <g transform="matrix(10,0,0,-10,0,6000)">
            <path d="M220.6,267.1C228.8,272.1 231.2,282.7 226.1,291C222.6,296.8 218,299.4 211.5,299.4C199.7,299.4 191.8,288.8 194.9,277C197.9,265.8 210.6,260.9 220.6,267.1Z"/>
        </g>
        <path d="M2041,3399C1996,3381 1932,3321 1911,3277C1876,3206 1885,3105 1932,3038C1961,2997 2031,2959 2092,2953C2277,2934 2404,3146 2304,3307C2252,3390 2128,3434 2041,3399ZM2206,3329C2288,3279 2312,3173 2261,3090C2226,3032 2180,3006 2115,3006C1997,3006 1918,3112 1949,3230C1979,3342 2106,3391 2206,3329Z" style="fill-rule:nonzero;"/>
        <g transform="matrix(10,0,0,-10,0,6000)">
            <path d="M402.2,267.5C411.4,273.6 412.6,287.2 404.5,295C401.3,298.1 400.3,298.5 394.1,298.8C386.4,299.3 382.4,297.8 379.1,293.2C367.4,276.7 385.5,256.5 402.2,267.5Z"/>
        </g>
        <path d="M3840,3389C3782,3363 3756,3338 3725,3279C3648,3132 3762,2950 3930,2950C3975,2950 4057,2989 4092,3026C4169,3108 4170,3256 4094,3334C4023,3407 3926,3428 3840,3389ZM4022,3325C4114,3264 4126,3128 4045,3050C4013,3019 4003,3015 3941,3012C3864,3007 3824,3022 3791,3068C3674,3233 3855,3435 4022,3325Z" style="fill-rule:nonzero;"/>
    </g>
</svg>
